<svg version="1.1" viewBox="0.0 0.0 418.9448818897638 223.11286089238845" fill="none" stroke="none" stroke-linecap="square" stroke-miterlimit="10" xmlns:xlink="http://www.w3.org/1999/xlink" xmlns="http://www.w3.org/2000/svg"><clipPath id="p.0"><path d="m0 0l418.9449 0l0 223.11285l-418.9449 0l0 -223.11285z" clip-rule="nonzero"/></clipPath><g clip-path="url(#p.0)"><path fill="#000000" fill-opacity="0.0" d="m0 0l418.9449 0l0 223.11285l-418.9449 0z" fill-rule="evenodd"/><path fill="#ffffff" d="m8.275591 8.769029l74.04804 205.5748l254.2976 0l74.048035 -205.5748z" fill-rule="evenodd"/><path stroke="#434343" stroke-width="16.0" stroke-linejoin="round" stroke-linecap="butt" d="m8.275591 8.769029l74.04804 205.5748l254.2976 0l74.048035 -205.5748z" fill-rule="evenodd"/><path fill="#6aa84f" d="m135.7704 197.05249l-63.071625 -170.99213l-40.550415 0l63.071632 170.99213z" fill-rule="evenodd"/><path stroke="#6aa84f" stroke-width="1.0" stroke-linejoin="round" stroke-linecap="butt" d="m135.7704 197.05249l-63.071625 -170.99213l-40.550415 0l63.071632 170.99213z" fill-rule="evenodd"/><path fill="#4a86e8" d="m147.3307 111.055115l31.215149 85.98425l40.4384 0l-31.215149 -85.98425z" fill-rule="evenodd"/><path stroke="#4a86e8" stroke-width="1.0" stroke-linejoin="round" stroke-linecap="butt" d="m147.3307 111.055115l31.215149 85.98425l40.4384 0l-31.215149 -85.98425z" fill-rule="evenodd"/><path fill="#ffd966" d="m227.82152 197.03937l13.438156 -36.06299l98.152405 0l-13.438171 36.06299z" fill-rule="evenodd"/><path stroke="#ffd966" stroke-width="1.0" stroke-linejoin="round" stroke-linecap="butt" d="m227.82152 197.03937l13.438156 -36.06299l98.152405 0l-13.438171 36.06299z" fill-rule="evenodd"/><path fill="#ffd966" d="m345.3386 146.98425l-60.59836 -70.86614l-43.023697 0l60.598343 70.86614z" fill-rule="evenodd"/><path stroke="#ffd966" stroke-width="1.0" stroke-linejoin="round" stroke-linecap="butt" d="m345.3386 146.98425l-60.59836 -70.86614l-43.023697 0l60.598343 70.86614z" fill-rule="evenodd"/><path fill="#4a86e8" d="m147.3307 112.04462l31.215149 -85.98425l40.4384 0l-31.215149 85.98425z" fill-rule="evenodd"/><path stroke="#4a86e8" stroke-width="1.0" stroke-linejoin="round" stroke-linecap="butt" d="m147.3307 112.04462l31.215149 -85.98425l40.4384 0l-31.215149 85.98425z" fill-rule="evenodd"/><path fill="#6aa84f" d="m95.65479 197.05249l63.071632 -170.99213l40.550415 0l-63.07164 170.99213z" fill-rule="evenodd"/><path stroke="#6aa84f" stroke-width="1.0" stroke-linejoin="round" stroke-linecap="butt" d="m95.65479 197.05249l63.071632 -170.99213l40.550415 0l-63.07164 170.99213z" fill-rule="evenodd"/><path fill="#4a86e8" d="m179.08136 197.03937l13.438156 -36.06299l64.95555 0l-13.438156 36.06299z" fill-rule="evenodd"/><path stroke="#4a86e8" stroke-width="1.0" stroke-linejoin="round" stroke-linecap="butt" d="m179.08136 197.03937l13.438156 -36.06299l64.95555 0l-13.438156 36.06299z" fill-rule="evenodd"/><path fill="#ffd966" d="m283.00787 197.03937l19.241638 -49.921265l43.08908 0l-19.241669 49.921265z" fill-rule="evenodd"/><path stroke="#ffd966" stroke-width="1.0" stroke-linejoin="round" stroke-linecap="butt" d="m283.00787 197.03937l19.241638 -49.921265l43.08908 0l-19.241669 49.921265z" fill-rule="evenodd"/><path fill="#ffd966" d="m250.65274 62.125984l13.438141 -36.062992l94.43588 0l-13.438171 36.062992z" fill-rule="evenodd"/><path stroke="#ffd966" stroke-width="1.0" stroke-linejoin="round" stroke-linecap="butt" d="m250.65274 62.125984l13.438141 -36.062992l94.43588 0l-13.438171 36.062992z" fill-rule="evenodd"/><path fill="#ffd966" d="m241.88452 75.98163l19.241638 -49.92126l43.08905 0l-19.241638 49.92126z" fill-rule="evenodd"/><path stroke="#ffd966" stroke-width="1.0" stroke-linejoin="round" stroke-linecap="butt" d="m241.88452 75.98163l19.241638 -49.92126l43.08905 0l-19.241638 49.92126z" fill-rule="evenodd"/><path fill="#4a86e8" d="m199.27818 62.12336l13.438141 -36.062992l64.95555 0l-13.438141 36.062992z" fill-rule="evenodd"/><path stroke="#4a86e8" stroke-width="1.0" stroke-linejoin="round" stroke-linecap="butt" d="m199.27818 62.12336l13.438141 -36.062992l64.95555 0l-13.438141 36.062992z" fill-rule="evenodd"/></g></svg>